# xmcd
#
# Track frame offsets: 
#        150
#        19072
#        30975
#        45730
#        66332
#        88442
#        115910
#        147085
#        169487
#        181840
#        205847
#        225285
#        246670
#        265862
#        285477
#        314080
#
# Disc length: 4365 seconds
#
# Revision: 0
# Processed by: cddbd v1.5.1PL2 Copyright (c) Steve Scherf et al.
# Submitted via: ExactAudioCopy v0.95b4
#
DISCID=e9110b10
DTITLE=Muddy Waters - All Night Long
DYEAR=2005
DGENRE=Blues
TTITLE0=Country Boy
TTITLE1=Baby Please Don't Go
TTITLE2=Hoochie Coochie Man
TTITLE3=Tiger in Your Tank
TTITLE4=She's Nineteen Years Old
TTITLE5=County Jail
TTITLE6=Long Distance Call
TTITLE7=Rock Me Baby
TTITLE8=Trouble No More
TTITLE9=Rosalie
TTITLE10=Rollin' and Tumblin'
TTITLE11=I Feel Like Going Home
TTITLE12=Can't Get No Grindin' (What's the Matter With the Mill)
TTITLE13=Honey Bee
TTITLE14=The Blues had a Baby and They Named it Rock and Roll
TTITLE15=Got My Mojo Working
EXTD=
EXTT0=
EXTT1=
EXTT2=
EXTT3=
EXTT4=
EXTT5=
EXTT6=
EXTT7=
EXTT8=
EXTT9=
EXTT10=
EXTT11=
EXTT12=
EXTT13=
EXTT14=
EXTT15=
PLAYORDER=
